<svg xmlns="http://www.w3.org/2000/svg" width="750" height="1050" viewBox="0 0 750 1050" role="img" aria-labelledby="t d"><title id="t">Attribute frame placeholder: 風 (SUIT_WIND)</title><desc id="d">Card border keyed to the wind suit by edge shape (swirls) and colour.</desc><rect width="750" height="1050" fill="none"/><rect x="24" y="24" width="702" height="1002" rx="28" fill="none" stroke="#31886B" stroke-width="20"/><rect x="52" y="52" width="646" height="946" rx="18" fill="none" stroke="#1B1D24" stroke-width="4"/><g><path d="M70 20 c30 0 30 40 0 40 c-24 0 -24 -28 0 -28" fill="none" stroke="#31886B" stroke-width="10"/><path d="M170 20 c30 0 30 40 0 40 c-24 0 -24 -28 0 -28" fill="none" stroke="#31886B" stroke-width="10"/><path d="M270 20 c30 0 30 40 0 40 c-24 0 -24 -28 0 -28" fill="none" stroke="#31886B" stroke-width="10"/><path d="M370 20 c30 0 30 40 0 40 c-24 0 -24 -28 0 -28" fill="none" stroke="#31886B" stroke-width="10"/><path d="M470 20 c30 0 30 40 0 40 c-24 0 -24 -28 0 -28" fill="none" stroke="#31886B" stroke-width="10"/><path d="M570 20 c30 0 30 40 0 40 c-24 0 -24 -28 0 -28" fill="none" stroke="#31886B" stroke-width="10"/><path d="M670 20 c30 0 30 40 0 40 c-24 0 -24 -28 0 -28" fill="none" stroke="#31886B" stroke-width="10"/></g><g transform="translate(0 1050) scale(1 -1)"><path d="M70 20 c30 0 30 40 0 40 c-24 0 -24 -28 0 -28" fill="none" stroke="#31886B" stroke-width="10"/><path d="M170 20 c30 0 30 40 0 40 c-24 0 -24 -28 0 -28" fill="none" stroke="#31886B" stroke-width="10"/><path d="M270 20 c30 0 30 40 0 40 c-24 0 -24 -28 0 -28" fill="none" stroke="#31886B" stroke-width="10"/><path d="M370 20 c30 0 30 40 0 40 c-24 0 -24 -28 0 -28" fill="none" stroke="#31886B" stroke-width="10"/><path d="M470 20 c30 0 30 40 0 40 c-24 0 -24 -28 0 -28" fill="none" stroke="#31886B" stroke-width="10"/><path d="M570 20 c30 0 30 40 0 40 c-24 0 -24 -28 0 -28" fill="none" stroke="#31886B" stroke-width="10"/><path d="M670 20 c30 0 30 40 0 40 c-24 0 -24 -28 0 -28" fill="none" stroke="#31886B" stroke-width="10"/></g></svg>
