<svg xmlns="http://www.w3.org/2000/svg" width="750" height="1050" viewBox="0 0 750 1050" role="img" aria-labelledby="t d"><title id="t">M3 finalizable attribute frame rough: 火</title><desc id="d">Attribute frame for 火, distinguishable by spikes shape cues as well as colour.</desc><rect width="750" height="1050" fill="none"/><rect x="22" y="22" width="706" height="1006" rx="30" fill="none" stroke="#D84A2B" stroke-width="24"/><rect x="58" y="58" width="634" height="934" rx="18" fill="none" stroke="#1F2933" stroke-width="5"/><g><path d="M54 52 L72 20 L90 52 Z" fill="#D84A2B"/><path d="M90 52 L108 20 L126 52 Z" fill="#D84A2B"/><path d="M126 52 L144 20 L162 52 Z" fill="#D84A2B"/><path d="M162 52 L180 20 L198 52 Z" fill="#D84A2B"/><path d="M198 52 L216 20 L234 52 Z" fill="#D84A2B"/><path d="M234 52 L252 20 L270 52 Z" fill="#D84A2B"/><path d="M270 52 L288 20 L306 52 Z" fill="#D84A2B"/><path d="M306 52 L324 20 L342 52 Z" fill="#D84A2B"/><path d="M342 52 L360 20 L378 52 Z" fill="#D84A2B"/><path d="M378 52 L396 20 L414 52 Z" fill="#D84A2B"/><path d="M414 52 L432 20 L450 52 Z" fill="#D84A2B"/><path d="M450 52 L468 20 L486 52 Z" fill="#D84A2B"/><path d="M486 52 L504 20 L522 52 Z" fill="#D84A2B"/><path d="M522 52 L540 20 L558 52 Z" fill="#D84A2B"/><path d="M558 52 L576 20 L594 52 Z" fill="#D84A2B"/><path d="M594 52 L612 20 L630 52 Z" fill="#D84A2B"/><path d="M630 52 L648 20 L666 52 Z" fill="#D84A2B"/><path d="M666 52 L684 20 L702 52 Z" fill="#D84A2B"/></g><g transform="translate(0 1050) scale(1 -1)"><path d="M54 52 L72 20 L90 52 Z" fill="#D84A2B"/><path d="M90 52 L108 20 L126 52 Z" fill="#D84A2B"/><path d="M126 52 L144 20 L162 52 Z" fill="#D84A2B"/><path d="M162 52 L180 20 L198 52 Z" fill="#D84A2B"/><path d="M198 52 L216 20 L234 52 Z" fill="#D84A2B"/><path d="M234 52 L252 20 L270 52 Z" fill="#D84A2B"/><path d="M270 52 L288 20 L306 52 Z" fill="#D84A2B"/><path d="M306 52 L324 20 L342 52 Z" fill="#D84A2B"/><path d="M342 52 L360 20 L378 52 Z" fill="#D84A2B"/><path d="M378 52 L396 20 L414 52 Z" fill="#D84A2B"/><path d="M414 52 L432 20 L450 52 Z" fill="#D84A2B"/><path d="M450 52 L468 20 L486 52 Z" fill="#D84A2B"/><path d="M486 52 L504 20 L522 52 Z" fill="#D84A2B"/><path d="M522 52 L540 20 L558 52 Z" fill="#D84A2B"/><path d="M558 52 L576 20 L594 52 Z" fill="#D84A2B"/><path d="M594 52 L612 20 L630 52 Z" fill="#D84A2B"/><path d="M630 52 L648 20 L666 52 Z" fill="#D84A2B"/><path d="M666 52 L684 20 L702 52 Z" fill="#D84A2B"/></g></svg>
