<svg xmlns="http://www.w3.org/2000/svg" width="750" height="1050" viewBox="0 0 750 1050" role="img" aria-labelledby="t d"><title id="t">Composite preview: rank 9 in the 風 frame</title><desc id="d">Frame + emblem + rank illustration layered so the three representative cards can be compared.</desc><rect width="750" height="1050" fill="#FAF8F0"/><path d="M315 70 A150 150 0 1 0 316 70 M315 130 A90 90 0 1 1 314 130" transform="translate(60 120)" fill="#C9CEC7" stroke="#1B1D24" stroke-width="6"/><text x="375" y="900" font-family="Arial, sans-serif" font-size="260" font-weight="700" text-anchor="middle" fill="#1B1D24">9</text><g transform="translate(540 60) scale(0.9)"><path d="M22 78 C82 30 156 46 176 90 C138 74 108 86 84 116 C124 100 168 120 186 160 C124 150 74 162 30 196 C48 150 60 114 22 78 Z" fill="#31886B" stroke="#1B1D24" stroke-width="8"/></g><rect x="24" y="24" width="702" height="1002" rx="28" fill="none" stroke="#31886B" stroke-width="20"/></svg>
