<svg xmlns="http://www.w3.org/2000/svg" width="900" height="240" viewBox="0 0 900 240" role="img" aria-label="8 card layout"><rect width="900" height="240" fill="#EEF5F1"/><rect x="18" y="18" width="864" height="204" rx="12" fill="none" stroke="#3B4148" stroke-width="2" stroke-dasharray="10 8"/><rect x="30" y="56" width="92" height="128" rx="8" fill="#FAF8F0" stroke="#1B1D24" stroke-width="3"/><circle cx="76" cy="120" r="11" fill="#2577B8"/><path d="M40 68 H112" stroke="#8B9098" stroke-width="3"/><rect x="136" y="56" width="92" height="128" rx="8" fill="#FAF8F0" stroke="#1B1D24" stroke-width="3"/><circle cx="182" cy="120" r="11" fill="#2577B8"/><path d="M146 68 H218" stroke="#8B9098" stroke-width="3"/><rect x="242" y="56" width="92" height="128" rx="8" fill="#FAF8F0" stroke="#1B1D24" stroke-width="3"/><circle cx="288" cy="120" r="11" fill="#2577B8"/><path d="M252 68 H324" stroke="#8B9098" stroke-width="3"/><rect x="348" y="56" width="92" height="128" rx="8" fill="#FAF8F0" stroke="#1B1D24" stroke-width="3"/><circle cx="394" cy="120" r="11" fill="#2577B8"/><path d="M358 68 H430" stroke="#8B9098" stroke-width="3"/><rect x="454" y="56" width="92" height="128" rx="8" fill="#FAF8F0" stroke="#1B1D24" stroke-width="3"/><circle cx="500" cy="120" r="11" fill="#2577B8"/><path d="M464 68 H536" stroke="#8B9098" stroke-width="3"/><rect x="560" y="56" width="92" height="128" rx="8" fill="#FAF8F0" stroke="#1B1D24" stroke-width="3"/><circle cx="606" cy="120" r="11" fill="#2577B8"/><path d="M570 68 H642" stroke="#8B9098" stroke-width="3"/><rect x="666" y="56" width="92" height="128" rx="8" fill="#FAF8F0" stroke="#1B1D24" stroke-width="3"/><circle cx="712" cy="120" r="11" fill="#2577B8"/><path d="M676 68 H748" stroke="#8B9098" stroke-width="3"/><rect x="772" y="56" width="92" height="128" rx="8" fill="#FAF8F0" stroke="#1B1D24" stroke-width="3"/><circle cx="818" cy="120" r="11" fill="#2577B8"/><path d="M782 68 H854" stroke="#8B9098" stroke-width="3"/></svg>
