<svg xmlns="http://www.w3.org/2000/svg" width="900" height="240" viewBox="0 0 900 240" role="img" aria-label="7 card layout"><rect width="900" height="240" fill="#EEF5F1"/><rect x="18" y="18" width="864" height="204" rx="12" fill="none" stroke="#3B4148" stroke-width="2" stroke-dasharray="10 8"/><rect x="30" y="44" width="108" height="151" rx="8" fill="#FAF8F0" stroke="#1B1D24" stroke-width="3"/><circle cx="84" cy="119.5" r="13" fill="#2577B8"/><path d="M40 56 H128" stroke="#8B9098" stroke-width="3"/><rect x="152" y="44" width="108" height="151" rx="8" fill="#FAF8F0" stroke="#1B1D24" stroke-width="3"/><circle cx="206" cy="119.5" r="13" fill="#2577B8"/><path d="M162 56 H250" stroke="#8B9098" stroke-width="3"/><rect x="274" y="44" width="108" height="151" rx="8" fill="#FAF8F0" stroke="#1B1D24" stroke-width="3"/><circle cx="328" cy="119.5" r="13" fill="#2577B8"/><path d="M284 56 H372" stroke="#8B9098" stroke-width="3"/><rect x="396" y="44" width="108" height="151" rx="8" fill="#FAF8F0" stroke="#1B1D24" stroke-width="3"/><circle cx="450" cy="119.5" r="13" fill="#2577B8"/><path d="M406 56 H494" stroke="#8B9098" stroke-width="3"/><rect x="518" y="44" width="108" height="151" rx="8" fill="#FAF8F0" stroke="#1B1D24" stroke-width="3"/><circle cx="572" cy="119.5" r="13" fill="#2577B8"/><path d="M528 56 H616" stroke="#8B9098" stroke-width="3"/><rect x="640" y="44" width="108" height="151" rx="8" fill="#FAF8F0" stroke="#1B1D24" stroke-width="3"/><circle cx="694" cy="119.5" r="13" fill="#2577B8"/><path d="M650 56 H738" stroke="#8B9098" stroke-width="3"/><rect x="762" y="44" width="108" height="151" rx="8" fill="#FAF8F0" stroke="#1B1D24" stroke-width="3"/><circle cx="816" cy="119.5" r="13" fill="#2577B8"/><path d="M772 56 H860" stroke="#8B9098" stroke-width="3"/></svg>
